# xmcd
#
# Track frame offsets: 
#        150
#        21687
#        32098
#        59644
#        98588
#        112735
#        132640
#        162286
#        183396
#        202574
#        227914
#        249216
#        271343
#        283836
#
# Disc length: 4663 seconds
#
# Revision: 0
# Processed by: cddbd v1.5.2PL0 Copyright (c) Steve Scherf et al.
# Submitted via: ExactAudioCopy v0.99pb3
#
DISCID=c212350e
DTITLE=Santana - Greatest Hits CD1
DYEAR=2006
DGENRE=Blues
TTITLE0=Flor D`luna
TTITLE1=Morning In Marin
TTITLE2=Deeper, Dig Deeper
TTITLE3=Soul Sacrifice
TTITLE4=Trane
TTITLE5=Bella
TTITLE6=Your Touch
TTITLE7=El Farol
TTITLE8=Vive La Vida (Life Is For Living)
TTITLE9=Jin-go-lo-ba
TTITLE10=Stormy
TTITLE11=Song Of The Wind
TTITLE12=Thoughts
TTITLE13=Santana Jam
EXTD=
EXTT0=
EXTT1=
EXTT2=
EXTT3=
EXTT4=
EXTT5=
EXTT6=
EXTT7=
EXTT8=
EXTT9=
EXTT10=
EXTT11=
EXTT12=
EXTT13=
PLAYORDER=
